<svg width="920" height="360" viewBox="0 0 920 360" xmlns="http://www.w3.org/2000/svg">
  <rect width="920" height="360" fill="#fcfcff"/>
  <text x="460" y="40" text-anchor="middle" font-family="Arial, sans-serif" font-size="24" font-weight="700" fill="#111827">Reading an FMRI Lineplot</text>

  <line x1="90" y1="300" x2="850" y2="300" stroke="#374151" stroke-width="2"/>
  <line x1="90" y1="70" x2="90" y2="300" stroke="#374151" stroke-width="2"/>

  <text x="470" y="332" text-anchor="middle" font-family="Arial, sans-serif" font-size="17" fill="#374151">timepoint</text>
  <text x="36" y="188" transform="rotate(-90 36 188)" text-anchor="middle" font-family="Arial, sans-serif" font-size="17" fill="#374151">signal</text>

  <polyline points="110,250 180,220 250,180 320,145 390,170 460,205 530,225" fill="none" stroke="#2563eb" stroke-width="4"/>
  <polyline points="110,270 180,245 250,205 320,175 390,150 460,158 530,185" fill="none" stroke="#dc2626" stroke-width="4" stroke-dasharray="8 6"/>

  <circle cx="320" cy="145" r="5" fill="#2563eb"/>
  <circle cx="390" cy="150" r="5" fill="#dc2626"/>

  <rect x="620" y="96" width="200" height="112" rx="16" fill="#f8fafc" stroke="#cbd5e1" stroke-width="2"/>
  <line x1="650" y1="128" x2="705" y2="128" stroke="#2563eb" stroke-width="4"/>
  <text x="725" y="133" font-family="Arial, sans-serif" font-size="16" fill="#1f2937">event = stimulus</text>
  <line x1="650" y1="162" x2="705" y2="162" stroke="#dc2626" stroke-width="4" stroke-dasharray="8 6"/>
  <text x="725" y="167" font-family="Arial, sans-serif" font-size="16" fill="#1f2937">event = cue</text>
  <text x="720" y="194" text-anchor="middle" font-family="Arial, sans-serif" font-size="15" fill="#475569">style can also split region</text>

  <text x="288" y="128" text-anchor="middle" font-family="Arial, sans-serif" font-size="15" fill="#2563eb">rising signal</text>
  <text x="470" y="140" text-anchor="middle" font-family="Arial, sans-serif" font-size="15" fill="#dc2626">different pattern by group</text>
</svg>
