<svg width="1100" height="520" viewBox="0 0 1100 520" xmlns="http://www.w3.org/2000/svg">
  <rect width="1100" height="520" fill="#f7f8fc"/>
  <text x="60" y="60" font-family="'Apple SD Gothic Neo', 'Malgun Gothic', 'Noto Sans CJK KR', sans-serif" font-size="28" font-weight="700" fill="#1f2937">NumPy 배열 구조</text>

  <rect x="60" y="100" width="460" height="330" rx="20" fill="#ffffff" stroke="#d6dae6"/>
  <text x="90" y="145" font-family="'Apple SD Gothic Neo', 'Malgun Gothic', 'Noto Sans CJK KR', sans-serif" font-size="22" font-weight="700" fill="#111827">1차원 배열</text>
  <text x="90" y="180" font-family="'Apple SD Gothic Neo', 'Malgun Gothic', 'Noto Sans CJK KR', sans-serif" font-size="18" fill="#4b5563">shape = (5,), ndim = 1, size = 5</text>

  <g font-family="'Apple SD Gothic Neo', 'Malgun Gothic', 'Noto Sans CJK KR', sans-serif" font-size="20" text-anchor="middle">
    <rect x="90" y="235" width="70" height="70" rx="12" fill="#dbeafe" stroke="#60a5fa"/>
    <rect x="170" y="235" width="70" height="70" rx="12" fill="#dbeafe" stroke="#60a5fa"/>
    <rect x="250" y="235" width="70" height="70" rx="12" fill="#dbeafe" stroke="#60a5fa"/>
    <rect x="330" y="235" width="70" height="70" rx="12" fill="#dbeafe" stroke="#60a5fa"/>
    <rect x="410" y="235" width="70" height="70" rx="12" fill="#dbeafe" stroke="#60a5fa"/>

    <text x="125" y="278" fill="#111827">1</text>
    <text x="205" y="278" fill="#111827">2</text>
    <text x="285" y="278" fill="#111827">3</text>
    <text x="365" y="278" fill="#111827">4</text>
    <text x="445" y="278" fill="#111827">5</text>

    <text x="125" y="340" font-size="16" fill="#6b7280">인덱스 0</text>
    <text x="205" y="340" font-size="16" fill="#6b7280">인덱스 1</text>
    <text x="285" y="340" font-size="16" fill="#6b7280">인덱스 2</text>
    <text x="365" y="340" font-size="16" fill="#6b7280">인덱스 3</text>
    <text x="445" y="340" font-size="16" fill="#6b7280">인덱스 4</text>
  </g>

  <rect x="580" y="100" width="460" height="330" rx="20" fill="#ffffff" stroke="#d6dae6"/>
  <text x="610" y="145" font-family="'Apple SD Gothic Neo', 'Malgun Gothic', 'Noto Sans CJK KR', sans-serif" font-size="22" font-weight="700" fill="#111827">2차원 배열</text>
  <text x="610" y="180" font-family="'Apple SD Gothic Neo', 'Malgun Gothic', 'Noto Sans CJK KR', sans-serif" font-size="18" fill="#4b5563">shape = (2, 3), ndim = 2, size = 6</text>

  <g font-family="'Apple SD Gothic Neo', 'Malgun Gothic', 'Noto Sans CJK KR', sans-serif" font-size="20" text-anchor="middle">
    <rect x="670" y="220" width="80" height="70" rx="12" fill="#dcfce7" stroke="#4ade80"/>
    <rect x="760" y="220" width="80" height="70" rx="12" fill="#dcfce7" stroke="#4ade80"/>
    <rect x="850" y="220" width="80" height="70" rx="12" fill="#dcfce7" stroke="#4ade80"/>
    <rect x="670" y="300" width="80" height="70" rx="12" fill="#dcfce7" stroke="#4ade80"/>
    <rect x="760" y="300" width="80" height="70" rx="12" fill="#dcfce7" stroke="#4ade80"/>
    <rect x="850" y="300" width="80" height="70" rx="12" fill="#dcfce7" stroke="#4ade80"/>

    <text x="710" y="263" fill="#111827">1</text>
    <text x="800" y="263" fill="#111827">2</text>
    <text x="890" y="263" fill="#111827">3</text>
    <text x="710" y="343" fill="#111827">4</text>
    <text x="800" y="343" fill="#111827">5</text>
    <text x="890" y="343" fill="#111827">6</text>
  </g>

  <text x="612" y="260" font-family="'Apple SD Gothic Neo', 'Malgun Gothic', 'Noto Sans CJK KR', sans-serif" font-size="16" fill="#6b7280">행 0</text>
  <text x="612" y="340" font-family="'Apple SD Gothic Neo', 'Malgun Gothic', 'Noto Sans CJK KR', sans-serif" font-size="16" fill="#6b7280">행 1</text>
  <text x="695" y="395" font-family="'Apple SD Gothic Neo', 'Malgun Gothic', 'Noto Sans CJK KR', sans-serif" font-size="16" fill="#6b7280">열 0</text>
  <text x="785" y="395" font-family="'Apple SD Gothic Neo', 'Malgun Gothic', 'Noto Sans CJK KR', sans-serif" font-size="16" fill="#6b7280">열 1</text>
  <text x="875" y="395" font-family="'Apple SD Gothic Neo', 'Malgun Gothic', 'Noto Sans CJK KR', sans-serif" font-size="16" fill="#6b7280">열 2</text>
</svg>
